<svg id="Layer_1" data-name="Layer 1" xmlns="http://www.w3.org/2000/svg" viewBox="0 0 19.01 16"><title>employees</title><path d="M16.57,10.26l-1.13-.45V9.1a2.08,2.08,0,0,0,.78-1.67,1.69,1.69,0,0,0,.41-1.21,1.72,1.72,0,0,0-.13-.7,1,1,0,0,0-.13-.21,2.18,2.18,0,0,0,.24-1.65c-.29-.91-1.45-1.23-2.35-1.23A2.65,2.65,0,0,0,12,3.34a.79.79,0,0,0-.74.35,1.89,1.89,0,0,0,.08,1.57.91.91,0,0,0-.17.25,1.66,1.66,0,0,0-.14.7,1.69,1.69,0,0,0,.42,1.22,2.08,2.08,0,0,0,.78,1.67v.72l-.27.1c1.3.85,1.46,1.4,1.46,1.86V16H18.6a.41.41,0,0,0,.4-.42h0V11.79C19,11.22,18.3,10.92,16.57,10.26ZM11,10.3h0A28.86,28.86,0,0,0,8.32,9V7.81a1.8,1.8,0,0,0,.48-.64h0a3.3,3.3,0,0,0,.26-.93.8.8,0,0,1,0-.1c0-.11,0-.23,0-.36l.11-.09h0a1.37,1.37,0,0,0,.3-.5h0a1.93,1.93,0,0,0,.08-.31v0a2,2,0,0,0,0-.32,1.81,1.81,0,0,0,0-.2,1.31,1.31,0,0,0-.16-.52.88.88,0,0,0-.19-.23l.1-.27a4,4,0,0,0,.11-.39l0-.1a3.21,3.21,0,0,0,.06-.36v-.1a2.7,2.7,0,0,0,0-.28.76.76,0,0,0,0-.12,2.53,2.53,0,0,0-.05-.36,1.61,1.61,0,0,0-.12-.33v0A1.93,1.93,0,0,0,8.56.45l0,0L8.21.28l-.14,0L7.82.15l-.2,0L7.31,0,7.19,0,6.73,0,6.35,0A4,4,0,0,0,5.23.27h0L5,.38A2.5,2.5,0,0,0,4.65.6l0,0L4.43.78,4.37.85,4.24,1a1.66,1.66,0,0,0-.14.22H3.91a1,1,0,0,0-.24,0h0l-.17.09h0l-.12.11v0l-.08.11a.89.89,0,0,0-.09.2v.06a1.17,1.17,0,0,0,0,.16V2.1a1.55,1.55,0,0,0,0,.17v.06c0,.07,0,.13,0,.2a.09.09,0,0,0,0,0c0,.08,0,.15.05.22a0,0,0,0,0,0,0,7,7,0,0,0,.25.71.91.91,0,0,0-.21.24h0l-.07.13v0l0,.11,0,.07s0,.07,0,.11a1.76,1.76,0,0,0,0,.29,2,2,0,0,0,0,.32v0a2,2,0,0,0,.08.3h0a1.36,1.36,0,0,0,.3.5h0l.11.09c0,.13,0,.24,0,.36a.73.73,0,0,0,0,.11,3.3,3.3,0,0,0,.26.93h0a1.81,1.81,0,0,0,.48.64V9C3,9.57.37,10.78,0,11.61H0a.44.44,0,0,0,0,.16v3.79a.41.41,0,0,0,.4.42H12.67V11.78C12.67,11.37,11.94,10.83,11,10.3Z" transform="translate(0.01 0)"/></svg>