<svg id="Layer_1" data-name="Layer 1" xmlns="http://www.w3.org/2000/svg" viewBox="0 0 22.97 14.01"><title>hands</title><path d="M8.47,8.7a4.85,4.85,0,0,0-.17-.48,1.58,1.58,0,0,0-1.6-.92.23.23,0,0,1-.28-.17v0A1.5,1.5,0,0,0,5.24,6a1.09,1.09,0,0,0-1.1.3c-.49.52-1,1-1.57,1.5-.34-.34-.67-.69-1-1A4.47,4.47,0,0,0,.1,5.86.22.22,0,0,1,0,5.66c.09-.26.2-.51.31-.75L2.26.7A.68.68,0,0,1,3.12.29l.14.07.24.13A4,4,0,0,0,6.09,1,11.44,11.44,0,0,0,7.53.62,10.13,10.13,0,0,1,10.34.23a1.26,1.26,0,0,1,.82.25L9.84,1.68l-2.14,2A1.16,1.16,0,0,0,7.48,5,2.31,2.31,0,0,0,10.61,6l.06,0a11.26,11.26,0,0,0,2.57-1.83A.27.27,0,0,1,13.62,4l0,0a36.88,36.88,0,0,1,3.85,3.19,11.53,11.53,0,0,1,.9,1,1.53,1.53,0,0,1,.19,1.44,1.14,1.14,0,0,1-1.34.69l-.43-.05a1.42,1.42,0,0,1-.76,1.18,2.2,2.2,0,0,1-1.48,0,1.35,1.35,0,0,1-.56,1.1,1.82,1.82,0,0,1-1.26.16c-.57,1.3-1.43,1.32-2.07,1l.51-.52c.39-.39.8-.77,1.18-1.16a.5.5,0,0,0,.15-.33,3.36,3.36,0,0,0-.14-.82,1.4,1.4,0,0,0-1.55-1,.27.27,0,0,1-.33-.18v0a1.51,1.51,0,0,0-1.72-1.1ZM13.21,0a5.38,5.38,0,0,1,1.67.45A6.91,6.91,0,0,0,18,1,4.06,4.06,0,0,0,19.84.35a.46.46,0,0,1,.75.19l1.56,3.23c.24.5.5,1,.74,1.51a.5.5,0,0,1-.18.68h0l-2,1.5L20.07,8a.61.61,0,0,1-.86,0l-.09-.1c-.56-.59-1.11-1.18-1.69-1.75a19.12,19.12,0,0,0-3-2.46c-.24-.15-.5-.28-.74-.43a.25.25,0,0,0-.33,0c-.79.61-1.58,1.22-2.39,1.81a2.43,2.43,0,0,1-1.9.42,1.32,1.32,0,0,1-1-1.34.51.51,0,0,1,.18-.27A36.08,36.08,0,0,0,12.35.31,1.09,1.09,0,0,1,13.21,0ZM7.59,12.59a1,1,0,0,1-1-.57.85.85,0,0,1,.17-1q.81-.83,1.65-1.63a1,1,0,0,1,1.33,0,.9.9,0,0,1,.08,1.27v0c-.55.57-1.12,1.13-1.71,1.67a1.63,1.63,0,0,1-.51.24ZM4.41,10.4a.86.86,0,0,1,.27-.65L6.28,8.17a1,1,0,0,1,1.35,0A.89.89,0,0,1,7.74,9.4l0,0Q6.89,10.3,6,11.11A.91.91,0,0,1,5,11.25.9.9,0,0,1,4.41,10.4ZM2.44,9a.85.85,0,0,1,.28-.65L4.28,6.8a1,1,0,0,1,1.41,0h0a.92.92,0,0,1,0,1.3l-.07.07L4.09,9.67A.94.94,0,0,1,3,9.87.92.92,0,0,1,2.44,9ZM12,11.41a.87.87,0,0,1-.28.67l-1.56,1.53a1,1,0,0,1-1.38.06l0,0a.92.92,0,0,1,0-1.29l.06-.06c.52-.52,1-1,1.57-1.54a.94.94,0,0,1,1.08-.19.89.89,0,0,1,.58.85Z" transform="translate(0 0)"/></svg>