<svg id="Layer_1" data-name="Layer 1" xmlns="http://www.w3.org/2000/svg" viewBox="0 0 13.96 14.01"><defs><style>.cls-1{isolation:isolate;}</style></defs><title>notification</title><path class="cls-1" d="M13.71,10.5A1.46,1.46,0,0,1,12.25,9h0V6.42A5.28,5.28,0,0,0,9,1.56,2,2,0,0,0,7,0,2.05,2.05,0,0,0,5,1.56,5.28,5.28,0,0,0,1.75,6.42V9A1.46,1.46,0,0,1,.29,10.5h0a.29.29,0,0,0,0,.58H13.71a.29.29,0,0,0,0-.58Zm-5,1.17H5.25A.29.29,0,0,0,5,12H5A2,2,0,1,0,9,12v0A.29.29,0,0,0,8.75,11.67Z" transform="translate(-0.02 0)"/></svg>