<svg id="Layer_1" data-name="Layer 1" xmlns="http://www.w3.org/2000/svg" viewBox="0 0 48 48"><title>recent activity</title><path d="M39,48H9a9,9,0,0,1-9-9V9A9,9,0,0,1,6,.55V4.5a4.5,4.5,0,0,0,9,0V0H33V4.5a4.5,4.5,0,1,0,9,0V.55A9,9,0,0,1,48,9V39A9,9,0,0,1,39,48Zm3-33H6V39a3,3,0,0,0,3,3H39a3,3,0,0,0,3-3ZM30,30h6v6H30Zm0-9h6v6H30Zm-9,9h6v6H21Zm0-9h6v6H21Zm-9,9h6v6H12Zm0-9h6v6H12ZM37.5,6A1.5,1.5,0,0,1,36,4.5V0h3V4.5A1.5,1.5,0,0,1,37.5,6Zm-27,0A1.5,1.5,0,0,1,9,4.5V0h3V4.5A1.5,1.5,0,0,1,10.5,6Z" transform="translate(0 0)"/></svg>