<svg id="Layer_1" data-name="Layer 1" xmlns="http://www.w3.org/2000/svg" viewBox="0 0 48 48"><title>settings-2</title><path d="M45,21H42c-.1,0-.19.05-.3.06a17.85,17.85,0,0,0-3.09-7.51c.08-.06.17-.09.24-.16L41,11.27A3,3,0,1,0,36.73,7L34.6,9.15c-.07.07-.1.16-.16.24A17.8,17.8,0,0,0,26.94,6.3c0-.11.06-.19.06-.3V3a3,3,0,1,0-6,0V6c0,.11.05.19.06.3a17.8,17.8,0,0,0-7.51,3.09c-.06-.08-.09-.17-.16-.24L11.27,7A3,3,0,0,0,7,11.27l2.12,2.12a2.2,2.2,0,0,0,.24.16A17.81,17.81,0,0,0,6.3,21.06c-.11,0-.19-.06-.3-.06H3a3,3,0,0,0,0,6H6a2.6,2.6,0,0,0,.3-.06,17.85,17.85,0,0,0,3.09,7.51,2.51,2.51,0,0,0-.24.16L7,36.73A3,3,0,1,0,11.27,41l2.12-2.12c.07-.07.1-.17.16-.24a17.84,17.84,0,0,0,7.51,3.1c0,.1-.06.19-.06.3v3a3,3,0,0,0,6,0V42c0-.1-.05-.19-.06-.3a17.86,17.86,0,0,0,7.51-3.1,2.56,2.56,0,0,0,.16.24L36.73,41A3,3,0,1,0,41,36.73L38.85,34.6c-.07-.07-.17-.09-.24-.16a17.85,17.85,0,0,0,3.09-7.51A2.6,2.6,0,0,0,42,27h3a3,3,0,0,0,0-6ZM24,33a9,9,0,1,1,9-9A9,9,0,0,1,24,33Z" transform="translate(0 0)"/></svg>