<?xml version="1.0" encoding="utf-8"?>
<!-- Generator: Adobe Illustrator 19.0.0, SVG Export Plug-In . SVG Version: 6.00 Build 0)  -->
<svg version="1.1"
	 id="Layer_1" xmlns:dc="http://purl.org/dc/elements/1.1/" xmlns:cc="http://creativecommons.org/ns#" xmlns:rdf="http://www.w3.org/1999/02/22-rdf-syntax-ns#" xmlns:svg="http://www.w3.org/2000/svg" xmlns:sodipodi="http://sodipodi.sourceforge.net/DTD/sodipodi-0.dtd" xmlns:inkscape="http://www.inkscape.org/namespaces/inkscape"
	 xmlns="http://www.w3.org/2000/svg" xmlns:xlink="http://www.w3.org/1999/xlink" x="0px" y="0px"
	 viewBox="469.3 -531.6 1432.5 1434.6" style="enable-background:new 469.3 -531.6 1432.5 1434.6;" xml:space="preserve">
<g transform="translate(0,1052.3622)">
	<path d="M1811.4-1045.5h-446v-448c0-50.2-38.2-90.4-90.4-90.4h-182.8c-42.2,0-86.4,40.2-86.4,90.4v448h-446
		c-54.2,0-90.4,42.2-90.4,90.4v178.8c0,48.2,38.2,90.4,90.4,90.4h446v446c0,48.2,42.2,90.4,86.4,90.4H1275
		c54.3,0,90.4-42.2,90.4-90.4v-446h446c54.3,0,90.4-42.2,90.4-90.4v-178.8C1901.9-1001.3,1865.7-1045.5,1811.4-1045.5L1811.4-1045.5
		z"/>
</g>
<text transform="matrix(1 0 0 1 438 1199.8188)" style="font-family:'Arial-BoldMT'; font-size:5px;">Created by Javier Cezhkovic</text>
<text transform="matrix(1 0 0 1 438 1204.8188)" style="font-family:'Arial-BoldMT'; font-size:5px;">from the Noun Project</text>
</svg>
